<svg xmlns="http://www.w3.org/2000/svg" width="35" height="75.44" viewBox="0 0 35 75.44">
  <metadata><?xpacket begin="﻿" id="W5M0MpCehiHzreSzNTczkc9d"?>
<x:xmpmeta xmlns:x="adobe:ns:meta/" x:xmptk="Adobe XMP Core 5.6-c138 79.159824, 2016/09/14-01:09:01        ">
   <rdf:RDF xmlns:rdf="http://www.w3.org/1999/02/22-rdf-syntax-ns#">
      <rdf:Description rdf:about=""/>
   </rdf:RDF>
</x:xmpmeta>
                                                                                                    
                                                                                                    
                                                                                                    
                                                                                                    
                                                                                                    
                                                                                                    
                                                                                                    
                                                                                                    
                                                                                                    
                                                                                                    
                                                                                                    
                                                                                                    
                                                                                                    
                                                                                                    
                                                                                                    
                                                                                                    
                                                                                                    
                                                                                                    
                                                                                                    
                                                                                                    
                           
<?xpacket end="w"?></metadata>
<defs>
    <style>
      .cls-1 {
        fill: #fff;
        fill-rule: evenodd;
      }
    </style>
  </defs>
  <path id="Mouse" class="cls-1" d="M1328.5,950a17.5,17.5,0,0,1,17.5,17.5v18.008a17.5,17.5,0,1,1-35,0V967.5A17.5,17.5,0,0,1,1328.5,950Zm0,3a15.51,15.51,0,0,1,15.5,15.519v15.969a15.5,15.5,0,1,1-31,0V968.519A15.51,15.51,0,0,1,1328.5,953Zm0,8.933a2.151,2.151,0,1,1-2.16,2.151A2.157,2.157,0,0,1,1328.5,961.933Zm12.93,50.177-7.13,7.21-6.05,6.12-8.46-8.56h0l-4.71-4.77a0.875,0.875,0,0,1,0-1.22,0.845,0.845,0,0,1,1.21,0l11.96,12.1,11.97-12.1a0.845,0.845,0,0,1,1.21,0A0.875,0.875,0,0,1,1341.43,1012.11Z" transform="translate(-1311 -950)"/>
</svg>
